<svg width="24" height="24" viewBox="0 0 24 24" fill="none" xmlns="http://www.w3.org/2000/svg">
<path d="M10.125 14.925V5.625C10.125 4.575 9.3 3.75 8.25 3.75C7.2 3.75 6.375 4.575 6.375 5.625V14.925C5.7 15.4875 5.25 16.3125 5.25 17.25C5.25 18.9 6.6 20.25 8.25 20.25C9.9 20.25 11.25 18.9 11.25 17.25C11.25 16.3125 10.8 15.45 10.125 14.925Z" stroke="#EA9010" stroke-width="2" stroke-miterlimit="10" stroke-linecap="round" stroke-linejoin="round"/>
<path d="M11.25 6.93594C11.7375 6.78594 12.225 6.71094 12.75 6.71094C15.45 6.71094 17.6625 8.92344 17.6625 11.6234C17.6625 14.3234 15.45 16.5359 12.75 16.5359" stroke="#EA9010" stroke-width="2" stroke-miterlimit="10" stroke-linecap="round" stroke-linejoin="round"/>
<path d="M12.75 5.25V3.375" stroke="#EA9010" stroke-width="2" stroke-miterlimit="10" stroke-linecap="round" stroke-linejoin="round"/>
<path d="M12.75 18V19.875" stroke="#EA9010" stroke-width="2" stroke-miterlimit="10" stroke-linecap="round" stroke-linejoin="round"/>
<path d="M19.125 11.625H21" stroke="#EA9010" stroke-width="2" stroke-miterlimit="10" stroke-linecap="round" stroke-linejoin="round"/>
<path d="M17.1367 16.0117L18.5242 17.3992" stroke="#EA9010" stroke-width="2" stroke-miterlimit="10" stroke-linecap="round" stroke-linejoin="round"/>
<path d="M17.1367 7.23906L18.5242 5.85156" stroke="#EA9010" stroke-width="2" stroke-miterlimit="10" stroke-linecap="round" stroke-linejoin="round"/>
</svg>
