<svg width="26" height="26" viewBox="0 0 26 26" fill="none" xmlns="http://www.w3.org/2000/svg">
<path d="M25.4577 6.5013C25.4577 6.21398 25.3435 5.93843 25.1404 5.73527C24.9372 5.53211 24.6617 5.41797 24.3743 5.41797H12.9993C12.712 5.41797 12.4365 5.53211 12.2333 5.73527C12.0302 5.93843 11.916 6.21398 11.916 6.5013C11.916 6.78862 12.0302 7.06417 12.2333 7.26733C12.4365 7.4705 12.712 7.58464 12.9993 7.58464H24.3743C24.6617 7.58464 24.9372 7.4705 25.1404 7.26733C25.3435 7.06417 25.4577 6.78862 25.4577 6.5013Z" fill="#F6AE0E"/>
<path d="M1.62435 7.58334H4.52227C4.77782 8.30616 5.28067 8.91536 5.94195 9.30327C6.60323 9.69119 7.38036 9.83285 8.13598 9.7032C8.8916 9.57356 9.57706 9.18096 10.0712 8.59481C10.5654 8.00865 10.8364 7.26667 10.8364 6.50001C10.8364 5.73335 10.5654 4.99137 10.0712 4.40521C9.57706 3.81905 8.8916 3.42646 8.13598 3.29681C7.38036 3.16717 6.60323 3.30882 5.94195 3.69674C5.28067 4.08466 4.77782 4.69386 4.52227 5.41667H1.62435C1.33703 5.41667 1.06148 5.53081 0.858317 5.73397C0.655152 5.93714 0.541016 6.21269 0.541016 6.50001C0.541016 6.78732 0.655152 7.06287 0.858317 7.26604C1.06148 7.4692 1.33703 7.58334 1.62435 7.58334ZM7.58268 5.41667C7.79695 5.41667 8.0064 5.48021 8.18455 5.59925C8.3627 5.71829 8.50156 5.88748 8.58355 6.08543C8.66555 6.28339 8.687 6.50121 8.6452 6.71135C8.6034 6.9215 8.50022 7.11453 8.34871 7.26604C8.19721 7.41755 8.00418 7.52072 7.79403 7.56252C7.58388 7.60432 7.36606 7.58287 7.16811 7.50088C6.97016 7.41888 6.80096 7.28003 6.68192 7.10187C6.56289 6.92372 6.49935 6.71427 6.49935 6.50001C6.49935 6.21269 6.61349 5.93714 6.81665 5.73397C7.01981 5.53081 7.29536 5.41667 7.58268 5.41667Z" fill="#F6AE0E"/>
<path d="M24.3755 11.9167H20.3942C20.1387 11.1939 19.6358 10.5847 18.9745 10.1967C18.3132 9.80882 17.5361 9.66717 16.7805 9.79681C16.0249 9.92646 15.3394 10.3191 14.8453 10.9052C14.3511 11.4914 14.0801 12.2333 14.0801 13C14.0801 13.7667 14.3511 14.5086 14.8453 15.0948C15.3394 15.681 16.0249 16.0736 16.7805 16.2032C17.5361 16.3328 18.3132 16.1912 18.9745 15.8033C19.6358 15.4154 20.1387 14.8062 20.3942 14.0833H24.3755C24.6628 14.0833 24.9383 13.9692 25.1415 13.766C25.3447 13.5629 25.4588 13.2873 25.4588 13C25.4588 12.7127 25.3447 12.4371 25.1415 12.234C24.9383 12.0308 24.6628 11.9167 24.3755 11.9167ZM17.3338 14.0833C17.1195 14.0833 16.9101 14.0198 16.7319 13.9008C16.5538 13.7817 16.4149 13.6125 16.3329 13.4146C16.2509 13.2166 16.2295 12.9988 16.2713 12.7887C16.3131 12.5785 16.4163 12.3855 16.5678 12.234C16.7193 12.0825 16.9123 11.9793 17.1224 11.9375C17.3326 11.8957 17.5504 11.9171 17.7484 11.9991C17.9463 12.0811 18.1155 12.22 18.2346 12.3981C18.3536 12.5763 18.4171 12.7857 18.4171 13C18.4171 13.2873 18.303 13.5629 18.0998 13.766C17.8967 13.9692 17.6211 14.0833 17.3338 14.0833Z" fill="#F6AE0E"/>
<path d="M11.916 11.918H1.62435C1.33703 11.918 1.06148 12.0321 0.858317 12.2353C0.655152 12.4384 0.541016 12.714 0.541016 13.0013C0.541016 13.2886 0.655152 13.5642 0.858317 13.7673C1.06148 13.9705 1.33703 14.0846 1.62435 14.0846H11.916C12.2033 14.0846 12.4789 13.9705 12.682 13.7673C12.8852 13.5642 12.9993 13.2886 12.9993 13.0013C12.9993 12.714 12.8852 12.4384 12.682 12.2353C12.4789 12.0321 12.2033 11.918 11.916 11.918Z" fill="#F6AE0E"/>
<path d="M24.3757 18.418H15.1673C14.88 18.418 14.6044 18.5321 14.4013 18.7353C14.1981 18.9384 14.084 19.214 14.084 19.5013C14.084 19.7886 14.1981 20.0642 14.4013 20.2673C14.6044 20.4705 14.88 20.5846 15.1673 20.5846H24.3757C24.663 20.5846 24.9385 20.4705 25.1417 20.2673C25.3448 20.0642 25.459 19.7886 25.459 19.5013C25.459 19.214 25.3448 18.9384 25.1417 18.7353C24.9385 18.5321 24.663 18.418 24.3757 18.418Z" fill="#F6AE0E"/>
<path d="M9.74935 16.25C9.0779 16.2508 8.42317 16.4595 7.87516 16.8475C7.32714 17.2354 6.91275 17.7836 6.68893 18.4167H1.62435C1.33703 18.4167 1.06148 18.5308 0.858317 18.734C0.655152 18.9371 0.541016 19.2127 0.541016 19.5C0.541016 19.7873 0.655152 20.0629 0.858317 20.266C1.06148 20.4692 1.33703 20.5833 1.62435 20.5833H6.68893C6.88759 21.1452 7.23694 21.6417 7.69877 22.0184C8.1606 22.3951 8.71712 22.6376 9.30748 22.7193C9.89784 22.801 10.4993 22.7188 11.0461 22.4817C11.5929 22.2446 12.0639 21.8617 12.4077 21.3749C12.7516 20.8881 12.9549 20.3161 12.9955 19.7215C13.0361 19.1269 12.9124 18.5325 12.638 18.0035C12.3636 17.4745 11.949 17.0311 11.4395 16.7218C10.93 16.4125 10.3453 16.2493 9.74935 16.25ZM9.74935 20.5833C9.53509 20.5833 9.32563 20.5198 9.14748 20.4008C8.96933 20.2817 8.83047 20.1125 8.74848 19.9146C8.66648 19.7166 8.64503 19.4988 8.68683 19.2887C8.72863 19.0785 8.83181 18.8855 8.98332 18.734C9.13482 18.5825 9.32785 18.4793 9.538 18.4375C9.74815 18.3957 9.96597 18.4171 10.1639 18.4991C10.3619 18.5811 10.5311 18.72 10.6501 18.8981C10.7691 19.0763 10.8327 19.2857 10.8327 19.5C10.8327 19.7873 10.7185 20.0629 10.5154 20.266C10.3122 20.4692 10.0367 20.5833 9.74935 20.5833Z" fill="#F6AE0E"/>
</svg>
