<svg xmlns="http://www.w3.org/2000/svg" xmlns:xlink="http://www.w3.org/1999/xlink" width="500" zoomAndPan="magnify" viewBox="0 0 375 374.999991" height="500" preserveAspectRatio="xMidYMid meet" version="1.0"><defs><clipPath id="e87466eb93"><path d="M 18.160156 16.777344 L 357.910156 16.777344 L 357.910156 356.527344 L 18.160156 356.527344 Z M 18.160156 16.777344 " clip-rule="nonzero"/></clipPath><clipPath id="2d60d0c83f"><path d="M 188.085938 16.777344 C 94.238281 16.777344 18.160156 92.859375 18.160156 186.707031 C 18.160156 280.554688 94.238281 356.632812 188.085938 356.632812 C 281.9375 356.632812 358.015625 280.554688 358.015625 186.707031 C 358.015625 92.859375 281.9375 16.777344 188.085938 16.777344 Z M 188.085938 16.777344 " clip-rule="nonzero"/></clipPath><clipPath id="3846b11e2a"><path d="M 88.210938 86.832031 L 287.710938 86.832031 L 287.710938 286.332031 L 88.210938 286.332031 Z M 88.210938 86.832031 " clip-rule="nonzero"/></clipPath><clipPath id="5dfa120d25"><path d="M 188.085938 86.832031 C 132.925781 86.832031 88.210938 131.546875 88.210938 186.703125 C 88.210938 241.863281 132.925781 286.578125 188.085938 286.578125 C 243.242188 286.578125 287.957031 241.863281 287.957031 186.703125 C 287.957031 131.546875 243.242188 86.832031 188.085938 86.832031 Z M 188.085938 86.832031 " clip-rule="nonzero"/></clipPath><clipPath id="5796ae58c7"><path d="M 117.257812 208.472656 L 258.921875 208.472656 L 258.921875 375 L 117.257812 375 Z M 117.257812 208.472656 " clip-rule="nonzero"/></clipPath><clipPath id="ce5c9e2283"><path d="M 164.503906 212.117188 C 171.742188 209.914062 180.023438 208.472656 188.125 208.472656 C 196.230469 208.472656 204.027344 209.710938 211.214844 211.910156 C 211.367188 211.976562 211.519531 211.976562 211.671875 212.046875 C 238.660156 220.847656 258.539062 244.089844 258.921875 272.132812 L 258.921875 403.449219 L 117.257812 403.449219 L 117.257812 272.230469 C 117.640625 243.953125 137.210938 220.710938 164.503906 212.117188 Z M 164.503906 212.117188 " clip-rule="nonzero"/></clipPath><clipPath id="779625f77e"><path d="M 187.496094 -17.484375 C 74.726562 -17.484375 -16.691406 73.933594 -16.691406 186.703125 C -16.691406 299.472656 74.726562 390.890625 187.496094 390.890625 C 300.265625 390.890625 391.683594 299.472656 391.683594 186.703125 C 391.683594 73.933594 300.265625 -17.484375 187.496094 -17.484375 Z M 187.496094 -17.484375 " clip-rule="nonzero"/></clipPath></defs><g clip-path="url(#e87466eb93)"><g clip-path="url(#2d60d0c83f)"><path stroke-linecap="butt" transform="matrix(0.75, 0, 0, 0.75, 18.159977, 16.778678)" fill="none" stroke-linejoin="miter" d="M 226.567962 -0.00177902 C 101.437746 -0.00177902 0.000239017 101.440936 0.000239017 226.571153 C 0.000239017 351.701369 101.437746 453.138876 226.567962 453.138876 C 351.703387 453.138876 453.140894 351.701369 453.140894 226.571153 C 453.140894 101.440936 351.703387 -0.00177902 226.567962 -0.00177902 Z M 226.567962 -0.00177902 " stroke="#0c4226" stroke-width="116" stroke-opacity="1" stroke-miterlimit="4"/></g></g><g clip-path="url(#3846b11e2a)"><g clip-path="url(#5dfa120d25)"><path stroke-linecap="butt" transform="matrix(0.75, 0, 0, 0.75, 88.212524, 86.831221)" fill="none" stroke-linejoin="miter" d="M 133.16456 0.00107967 C 59.61768 0.00107967 -0.00211574 59.620875 -0.00211574 133.162547 C -0.00211574 206.709427 59.61768 266.329222 133.16456 266.329222 C 206.706231 266.329222 266.326027 206.709427 266.326027 133.162547 C 266.326027 59.620875 206.706231 0.00107967 133.16456 0.00107967 Z M 133.16456 0.00107967 " stroke="#0c4226" stroke-width="42" stroke-opacity="1" stroke-miterlimit="4"/></g></g><g clip-path="url(#5796ae58c7)"><g clip-path="url(#ce5c9e2283)"><path fill="#fbc646" d="M 117.257812 208.472656 L 258.921875 208.472656 L 258.921875 403.257812 L 117.257812 403.257812 Z M 117.257812 208.472656 " fill-opacity="1" fill-rule="nonzero"/></g></g><g clip-path="url(#779625f77e)"><path stroke-linecap="butt" transform="matrix(0.75, 0, 0, 0.75, -16.692345, -17.484927)" fill="none" stroke-linejoin="miter" d="M 272.251287 0.000735909 C 121.891892 0.000735909 0.00125141 121.891377 0.00125141 272.250771 C 0.00125141 422.610166 121.891892 544.500807 272.251287 544.500807 C 422.610681 544.500807 544.501322 422.610166 544.501322 272.250771 C 544.501322 121.891377 422.610681 0.000735909 272.251287 0.000735909 Z M 272.251287 0.000735909 " stroke="#ffffff" stroke-width="92" stroke-opacity="1" stroke-miterlimit="4"/></g></svg>