<svg width="758" height="164" viewBox="0 0 758 164" fill="none" xmlns="http://www.w3.org/2000/svg">
<path d="M125.2 1.99999V142H99.2V82H26.8V142H0.800001V1.99999H26.8V59.8H99.2V1.99999H125.2ZM223.714 -7.62939e-06C236.247 -7.62939e-06 247.181 2.46666 256.514 7.39999C265.847 12.3333 273.047 19.6667 278.114 29.4C283.314 39 285.914 50.6667 285.914 64.4V142H259.914V106H187.114V142H161.514V64.4C161.514 50.6667 164.047 39 169.114 29.4C174.314 19.6667 181.581 12.3333 190.914 7.39999C200.247 2.46666 211.181 -7.62939e-06 223.714 -7.62939e-06ZM259.914 84.2V62C259.914 49.0667 256.714 39.3333 250.314 32.8C243.914 26.1333 234.981 22.8 223.514 22.8C212.047 22.8 203.114 26.1333 196.714 32.8C190.314 39.3333 187.114 49.0667 187.114 62V84.2H259.914ZM439.178 1.99999V99.2C439.178 119.867 433.511 135.733 422.178 146.8C410.978 157.867 395.445 163.4 375.578 163.4C363.845 163.4 353.178 161.667 343.578 158.2C333.978 154.867 325.845 150.067 319.178 143.8L329.778 123.8C342.178 135 357.311 140.6 375.178 140.6C400.511 140.6 413.178 127.2 413.178 100.4V89.8C403.711 101.8 389.978 107.8 371.978 107.8C354.245 107.8 340.511 102.733 330.778 92.6C321.045 82.4667 316.178 67.9333 316.178 49V1.99999H342.178V47.8C342.178 60.0667 345.111 69.4 350.978 75.8C356.978 82.0667 365.311 85.2 375.978 85.2C387.311 85.2 396.311 81.8667 402.978 75.2C409.778 68.4 413.178 58.4 413.178 45.2V1.99999H439.178ZM536.605 -7.62939e-06C549.138 -7.62939e-06 560.071 2.46666 569.405 7.39999C578.738 12.3333 585.938 19.6667 591.005 29.4C596.205 39 598.805 50.6667 598.805 64.4V142H572.805V106H500.005V142H474.405V64.4C474.405 50.6667 476.938 39 482.005 29.4C487.205 19.6667 494.471 12.3333 503.805 7.39999C513.138 2.46666 524.071 -7.62939e-06 536.605 -7.62939e-06ZM572.805 84.2V62C572.805 49.0667 569.605 39.3333 563.205 32.8C556.805 26.1333 547.871 22.8 536.405 22.8C524.938 22.8 516.005 26.1333 509.605 32.8C503.205 39.3333 500.005 49.0667 500.005 62V84.2H572.805ZM730.775 70.4H755.375V142H733.975V133.8C723.975 140.6 711.442 144 696.375 144C683.442 144 671.575 141.2 660.775 135.6C649.975 130 641.308 121.867 634.775 111.2C628.375 100.533 625.175 87.8 625.175 73C625.175 59 628.442 46.4667 634.975 35.4C641.508 24.2 650.508 15.5333 661.975 9.39999C673.575 3.13333 686.575 -7.62939e-06 700.975 -7.62939e-06C712.708 -7.62939e-06 723.375 1.93332 732.975 5.79999C742.575 9.66666 750.642 15.3333 757.175 22.8L740.775 38.8C730.108 28.1333 717.242 22.8 702.175 22.8C692.308 22.8 683.508 24.9333 675.775 29.2C668.175 33.3333 662.175 39.2 657.775 46.8C653.508 54.4 651.375 63.0667 651.375 72.8C651.375 83.0667 653.508 91.9333 657.775 99.4C662.175 106.733 667.975 112.333 675.175 116.2C682.375 119.933 690.242 121.8 698.775 121.8C704.775 121.8 710.508 120.867 715.975 119C721.575 117.133 726.508 114.4 730.775 110.8V70.4Z" fill="#0C4226"/>
</svg>
