<svg width="24" height="24" viewBox="0 0 24 24" fill="none" xmlns="http://www.w3.org/2000/svg">
<path d="M14.3544 19.7167C14.3875 19.8102 14.4017 19.9094 14.3962 20.0085C14.3907 20.1075 14.3656 20.2045 14.3223 20.2938C14.2791 20.3831 14.2185 20.4629 14.1442 20.5286C14.0699 20.5944 13.9833 20.6447 13.8894 20.6767C12.8389 21.0316 11.7191 21.1313 10.6225 20.9674C9.52586 20.8035 8.48404 20.3809 7.58323 19.7344C6.68241 19.0879 5.94851 18.2362 5.44224 17.2498C4.93597 16.2633 4.6719 15.1705 4.67188 14.0617C4.67188 9.32172 10.8819 3.41172 11.1444 3.15672C11.2835 3.02594 11.4672 2.95313 11.6581 2.95312C11.849 2.95312 12.0328 3.02594 12.1719 3.15672C13.0236 3.96941 13.8275 4.83086 14.5794 5.73672C14.651 5.81079 14.7066 5.89882 14.7427 5.99532C14.7788 6.09183 14.7946 6.19474 14.7892 6.29763C14.7838 6.40053 14.7572 6.5012 14.7111 6.59337C14.6651 6.68553 14.6005 6.76722 14.5215 6.83334C14.4425 6.89945 14.3507 6.94858 14.2518 6.97764C14.153 7.00671 14.0492 7.01509 13.9469 7.00227C13.8447 6.98945 13.7462 6.95571 13.6576 6.90313C13.569 6.85056 13.4921 6.7803 13.4319 6.69672C12.7344 5.86422 12.0894 5.19672 11.6619 4.76172C10.2144 6.26172 6.17187 10.6867 6.17187 14.0617C6.17386 15.5165 6.75315 16.9109 7.78251 17.9389C8.81187 18.9668 10.2071 19.5442 11.6619 19.5442C12.2535 19.5448 12.8413 19.4485 13.4019 19.2592C13.5889 19.1944 13.794 19.206 13.9724 19.2917C14.1508 19.3774 14.2881 19.5302 14.3544 19.7167ZM13.9644 9.14172C13.836 9.14195 13.709 9.11539 13.5915 9.06373C13.4739 9.01208 13.3685 8.93646 13.2819 8.84172C12.8355 8.44774 12.2571 8.23622 11.6619 8.24922C11.463 8.24922 11.2722 8.32824 11.1315 8.46889C10.9909 8.60954 10.9119 8.80031 10.9119 8.99922C10.9119 9.19813 10.9909 9.3889 11.1315 9.52955C11.2722 9.6702 11.463 9.74922 11.6619 9.74922C11.7896 9.74848 11.9162 9.77407 12.0336 9.8244C12.151 9.87472 12.2568 9.9487 12.3444 10.0417C12.7868 10.4465 13.3647 10.671 13.9644 10.671C14.564 10.671 15.1419 10.4465 15.5844 10.0417C15.6719 9.9487 15.7777 9.87472 15.8952 9.8244C16.0126 9.77407 16.1391 9.74848 16.2669 9.74922C16.3949 9.74661 16.522 9.77136 16.6397 9.8218C16.7574 9.87224 16.863 9.94722 16.9494 10.0417C17.3928 10.4498 17.9743 10.6749 18.5769 10.6717C18.7758 10.6717 18.9666 10.5927 19.1072 10.452C19.2479 10.3114 19.3269 10.1206 19.3269 9.92172C19.3269 9.72281 19.2479 9.53204 19.1072 9.39139C18.9666 9.25073 18.7758 9.17172 18.5769 9.17172C18.4474 9.17208 18.3192 9.14561 18.2005 9.09397C18.0817 9.04234 17.9749 8.96667 17.8869 8.87172C17.4421 8.47169 16.8651 8.25036 16.2669 8.25036C15.6687 8.25036 15.0916 8.47169 14.6469 8.87172C14.5576 8.96103 14.451 9.03107 14.3336 9.07752C14.2162 9.12396 14.0906 9.14581 13.9644 9.14172ZM18.5769 12.5317C18.4474 12.5321 18.3192 12.5056 18.2005 12.454C18.0817 12.4023 17.9749 12.3267 17.8869 12.2317C17.4421 11.8317 16.8651 11.6104 16.2669 11.6104C15.6687 11.6104 15.0916 11.8317 14.6469 12.2317C14.5598 12.3258 14.4542 12.4008 14.3368 12.4522C14.2193 12.5035 14.0926 12.53 13.9644 12.53C13.8362 12.53 13.7094 12.5035 13.592 12.4522C13.4745 12.4008 13.3689 12.3258 13.2819 12.2317C12.84 11.8269 12.2612 11.6044 11.6619 11.6092C11.463 11.6092 11.2722 11.6882 11.1315 11.8289C10.9909 11.9695 10.9119 12.1603 10.9119 12.3592C10.9119 12.5581 10.9909 12.7489 11.1315 12.8895C11.2722 13.0302 11.463 13.1092 11.6619 13.1092C11.7896 13.1085 11.9162 13.1341 12.0336 13.1844C12.151 13.2347 12.2568 13.3087 12.3444 13.4017C12.7868 13.8065 13.3647 14.031 13.9644 14.031C14.564 14.031 15.1419 13.8065 15.5844 13.4017C15.6719 13.3087 15.7777 13.2347 15.8952 13.1844C16.0126 13.1341 16.1391 13.1085 16.2669 13.1092C16.3956 13.1066 16.5234 13.132 16.6413 13.1838C16.7591 13.2357 16.8643 13.3126 16.9494 13.4092C17.3939 13.8146 17.9753 14.0369 18.5769 14.0317C18.7758 14.0317 18.9666 13.9527 19.1072 13.812C19.2479 13.6714 19.3269 13.4806 19.3269 13.2817C19.3269 13.0828 19.2479 12.892 19.1072 12.7514C18.9666 12.6107 18.7758 12.5317 18.5769 12.5317ZM18.5769 15.9217C18.4479 15.9235 18.3199 15.8984 18.2011 15.848C18.0823 15.7977 17.9753 15.7232 17.8869 15.6292C17.4444 15.2245 16.8665 15 16.2669 15C15.6672 15 15.0893 15.2245 14.6469 15.6292C14.5587 15.7213 14.4527 15.7946 14.3354 15.8447C14.2181 15.8948 14.0919 15.9206 13.9644 15.9206C13.8368 15.9206 13.7106 15.8948 13.5933 15.8447C13.476 15.7946 13.3701 15.7213 13.2819 15.6292C12.8412 15.2216 12.2622 14.9965 11.6619 14.9992C11.463 14.9992 11.2722 15.0782 11.1315 15.2189C10.9909 15.3595 10.9119 15.5503 10.9119 15.7492C10.9119 15.9481 10.9909 16.1389 11.1315 16.2795C11.2722 16.4202 11.463 16.4992 11.6619 16.4992C11.7901 16.4999 11.9168 16.5269 12.0342 16.5785C12.1516 16.6301 12.2572 16.7052 12.3444 16.7992C12.7891 17.1992 13.3662 17.4206 13.9644 17.4206C14.5626 17.4206 15.1396 17.1992 15.5844 16.7992C15.6716 16.7052 15.7771 16.6301 15.8945 16.5785C16.0119 16.5269 16.1386 16.4999 16.2669 16.4992C16.3954 16.498 16.5227 16.5242 16.6404 16.5759C16.758 16.6276 16.8633 16.7037 16.9494 16.7992C17.3939 17.2046 17.9753 17.4269 18.5769 17.4217C18.7758 17.4217 18.9666 17.3427 19.1072 17.202C19.2479 17.0614 19.3269 16.8706 19.3269 16.6717C19.3269 16.4728 19.2479 16.282 19.1072 16.1414C18.9666 16.0007 18.7758 15.9217 18.5769 15.9217Z" fill="#EA9010"/>
</svg>
