<svg width="24" height="24" viewBox="0 0 24 24" fill="none" xmlns="http://www.w3.org/2000/svg">
<g clip-path="url(#clip0_240_12177)">
<path d="M12 3.75C12.4125 3.75 12.75 3.4125 12.75 3V1.5C12.75 1.0875 12.4125 0.75 12 0.75C11.5875 0.75 11.25 1.0875 11.25 1.5V3C11.25 3.4125 11.5875 3.75 12 3.75Z" fill="#EA9010"/>
<path d="M17.25 9C17.25 9.4125 17.5875 9.75 18 9.75H19.5C19.9125 9.75 20.25 9.4125 20.25 9C20.25 8.5875 19.9125 8.25 19.5 8.25H18C17.5875 8.25 17.25 8.5875 17.25 9Z" fill="#EA9010"/>
<path d="M4.5 9.75H6C6.4125 9.75 6.75 9.4125 6.75 9C6.75 8.5875 6.4125 8.25 6 8.25H4.5C4.0875 8.25 3.75 8.5875 3.75 9C3.75 9.4125 4.0875 9.75 4.5 9.75Z" fill="#EA9010"/>
<path d="M16.2444 5.505C16.4394 5.505 16.6269 5.43 16.7769 5.2875L17.8344 4.23C18.1269 3.9375 18.1269 3.465 17.8344 3.1725C17.5419 2.88 17.0694 2.88 16.7769 3.1725L15.7194 4.23C15.4269 4.5225 15.4269 4.995 15.7194 5.2875C15.8694 5.4375 16.0569 5.505 16.2519 5.505H16.2444Z" fill="#EA9010"/>
<path d="M7.23031 5.2875C7.38031 5.4375 7.56781 5.505 7.76281 5.505C7.95781 5.505 8.14531 5.43 8.29531 5.2875C8.58781 4.995 8.58781 4.5225 8.29531 4.23L7.23781 3.1725C6.94531 2.88 6.47281 2.88 6.18031 3.1725C5.88781 3.465 5.88781 3.9375 6.18031 4.23L7.23781 5.2875H7.23031Z" fill="#EA9010"/>
<path d="M23.2208 18.5325L20.9708 11.0325C20.8733 10.7175 20.5808 10.5 20.2508 10.5H15.4283C15.6383 10.0275 15.7508 9.5175 15.7508 9C15.7508 6.93 14.0708 5.25 12.0008 5.25C9.93079 5.25 8.25079 6.93 8.25079 9C8.25079 9.5175 8.36329 10.0275 8.57329 10.5H3.75079C3.42079 10.5 3.12829 10.7175 3.03079 11.0325L0.780793 18.5325C0.713293 18.7575 0.758293 19.005 0.900793 19.1925C1.04329 19.38 1.26829 19.4925 1.50079 19.4925H9.37579V21.7425H6.00079C5.58829 21.7425 5.25079 22.08 5.25079 22.4925C5.25079 22.905 5.58829 23.2425 6.00079 23.2425H18.0008C18.4133 23.2425 18.7508 22.905 18.7508 22.4925C18.7508 22.08 18.4133 21.7425 18.0008 21.7425H14.6258V19.4925H22.5008C22.7408 19.4925 22.9583 19.38 23.1008 19.1925C23.2433 19.005 23.2883 18.7575 23.2208 18.5325ZM20.3708 14.25H17.0633L16.3883 12H19.6958L20.3708 14.25ZM8.51329 14.25L9.18829 12H14.8208L15.4958 14.25H8.51329ZM15.9458 15.75L16.6208 18H7.38829L8.06329 15.75H15.9458ZM9.75079 9C9.75079 7.7625 10.7633 6.75 12.0008 6.75C13.2383 6.75 14.2508 7.7625 14.2508 9C14.2508 9.5625 14.0333 10.08 13.6433 10.5H10.3583C9.97579 10.08 9.75079 9.5625 9.75079 9ZM4.30579 12H7.61329L6.93829 14.25H3.63079L4.30579 12ZM3.18079 15.75H6.48829L5.81329 18H2.50579L3.18079 15.75ZM13.1258 21.75H10.8758V19.5H13.1258V21.75ZM18.1808 18L17.5058 15.75H20.8133L21.4883 18H18.1808Z" fill="#EA9010"/>
</g>
<defs>
<clipPath id="clip0_240_12177">
<rect width="24" height="24" fill="white"/>
</clipPath>
</defs>
</svg>
