<svg width="24" height="24" viewBox="0 0 24 24" fill="none" xmlns="http://www.w3.org/2000/svg">
<g clip-path="url(#clip0_240_12150)">
<path d="M12.75 22.5004C12.6222 22.5004 12.4965 22.4678 12.3848 22.4055C12.2731 22.3432 12.1792 22.2535 12.112 22.1447C12.0448 22.0359 12.0065 21.9118 12.0008 21.784C11.995 21.6563 12.022 21.5292 12.0792 21.4149L13.5792 18.4145C13.6682 18.2366 13.8242 18.1013 14.013 18.0385C14.2017 17.9756 14.4077 17.9902 14.5856 18.0792C14.7635 18.1682 14.8987 18.3242 14.9616 18.5129C15.0245 18.7017 15.0098 18.9076 14.9208 19.0855L13.4208 22.0855C13.3587 22.2103 13.263 22.3152 13.1445 22.3885C13.026 22.4618 12.8894 22.5006 12.75 22.5004Z" fill="#EA9010"/>
<path d="M6.00005 22.5004C5.87219 22.5004 5.74645 22.4678 5.63477 22.4055C5.5231 22.3432 5.4292 22.2535 5.36198 22.1447C5.29477 22.0359 5.25648 21.9118 5.25075 21.784C5.24502 21.6563 5.27204 21.5292 5.32925 21.4149L6.82925 18.4145C6.87331 18.3264 6.93429 18.2479 7.00871 18.1834C7.08312 18.1188 7.16952 18.0696 7.26297 18.0385C7.35641 18.0073 7.45507 17.9949 7.55332 18.0019C7.65157 18.0089 7.74747 18.0352 7.83556 18.0792C7.92365 18.1233 8.0022 18.1843 8.06673 18.2587C8.13125 18.3331 8.18049 18.4195 8.21162 18.5129C8.24275 18.6064 8.25518 18.7051 8.24818 18.8033C8.24119 18.9015 8.21491 18.9975 8.17085 19.0855L6.67085 22.0855C6.60874 22.2103 6.51304 22.3152 6.39453 22.3885C6.27602 22.4618 6.1394 22.5006 6.00005 22.5004Z" fill="#EA9010"/>
<path d="M22.5 11.6251C22.4947 10.5033 22.1046 9.41738 21.3948 8.54868C20.6851 7.67998 19.6988 7.08114 18.6006 6.85223C18.281 5.33851 17.4508 3.98065 16.2492 3.00621C15.0475 2.03178 13.5475 1.5 12.0004 1.5C10.4533 1.5 8.95322 2.03178 7.75158 3.00621C6.54993 3.98065 5.71975 5.33851 5.40016 6.85223C4.39912 7.05528 3.48731 7.56809 2.79384 8.31803C2.10037 9.06797 1.66037 10.0171 1.53614 11.0309C1.41191 12.0448 1.60975 13.072 2.10164 13.9672C2.59353 14.8624 3.35456 15.5801 4.27696 16.0189L3.07951 18.4146C3.03364 18.5029 3.00578 18.5994 2.99756 18.6985C2.98935 18.7976 3.00093 18.8974 3.03164 18.992C3.06235 19.0866 3.11157 19.1742 3.17644 19.2496C3.2413 19.325 3.32052 19.3867 3.40949 19.4312C3.49845 19.4757 3.59537 19.5021 3.69461 19.5088C3.79386 19.5154 3.89344 19.5023 3.98756 19.4702C4.08168 19.438 4.16847 19.3874 4.24286 19.3214C4.31725 19.2554 4.37777 19.1752 4.42088 19.0856L5.71306 16.5001H10.7864L9.82951 18.4146C9.78364 18.5029 9.75578 18.5994 9.74757 18.6985C9.73935 18.7976 9.75093 18.8974 9.78164 18.992C9.81235 19.0866 9.86157 19.1742 9.92644 19.2496C9.9913 19.325 10.0705 19.3867 10.1595 19.4312C10.2484 19.4757 10.3454 19.5021 10.4446 19.5088C10.5439 19.5154 10.6434 19.5023 10.7376 19.4702C10.8317 19.438 10.9185 19.3874 10.9929 19.3214C11.0673 19.2554 11.1278 19.1752 11.1709 19.0856L12.4633 16.5001H17.5364L16.5795 18.4146C16.5336 18.5029 16.5058 18.5994 16.4976 18.6985C16.4893 18.7976 16.5009 18.8974 16.5316 18.992C16.5623 19.0866 16.6116 19.1742 16.6764 19.2496C16.7413 19.325 16.8205 19.3867 16.9095 19.4312C16.9984 19.4757 17.0954 19.5021 17.1946 19.5088C17.2939 19.5154 17.3934 19.5023 17.4876 19.4702C17.5817 19.438 17.6685 19.3874 17.7429 19.3214C17.8173 19.2554 17.8778 19.1752 17.9209 19.0856L19.3792 16.1681C20.2966 15.8136 21.0856 15.1901 21.6425 14.3794C22.1994 13.5687 22.4983 12.6086 22.5 11.6251ZM17.625 15.0001H6.37501C5.50335 15.0004 4.66542 14.6632 4.03688 14.0593C3.40834 13.4553 3.03799 12.6315 3.00347 11.7606C2.96894 10.8896 3.27292 10.0391 3.85169 9.38727C4.43045 8.73548 5.23906 8.33305 6.10801 8.26433L6.71963 8.2164L6.79396 7.6074C6.94969 6.33621 7.56511 5.16592 8.52418 4.31717C9.48324 3.46843 10.7197 2.99989 12.0004 2.99989C13.2811 2.99989 14.5175 3.46843 15.4766 4.31717C16.4357 5.16592 17.0511 6.33621 17.2068 7.6074L17.2808 8.2164L17.8923 8.26433C18.7613 8.33305 19.5699 8.73551 20.1487 9.38732C20.7274 10.0391 21.0314 10.8897 20.9968 11.7607C20.9623 12.6317 20.5919 13.4555 19.9633 14.0594C19.3347 14.6633 18.4967 15.0004 17.625 15.0001Z" fill="#EA9010"/>
</g>
<defs>
<clipPath id="clip0_240_12150">
<rect width="24" height="24" fill="white"/>
</clipPath>
</defs>
</svg>
