<svg width="22" height="18" viewBox="0 0 22 18" fill="none" xmlns="http://www.w3.org/2000/svg">
<path d="M3.35338 17.446C4.24481 17.446 5.13624 17.1717 5.89052 16.6231C7.3991 17.686 9.45624 17.686 10.9648 16.6231C12.4734 17.686 14.5305 17.686 16.0391 16.6231C17.7534 17.8574 20.1534 17.686 21.6962 16.1431C22.0048 15.8346 22.0048 15.3203 21.6962 15.0117C21.3877 14.7031 20.8734 14.7031 20.5648 15.0117C19.6391 15.9374 18.1991 16.0746 17.102 15.4231C17.1705 15.286 17.2391 15.1488 17.2391 14.9774C17.2391 11.5146 14.4277 8.70312 10.9648 8.70312C7.50195 8.70312 4.69052 11.5146 4.69052 14.9774C4.69052 15.1488 4.72481 15.286 4.82767 15.4231C3.73052 16.1088 2.29052 15.9717 1.36481 15.0117C1.05624 14.7031 0.541953 14.7031 0.233382 15.0117C-0.0751897 15.3203 -0.0751897 15.8346 0.233382 16.1431C1.12481 17.0346 2.25624 17.446 3.35338 17.446ZM10.9991 10.3146C13.5705 10.3146 15.6277 12.3717 15.6962 14.9088C15.6277 14.9431 15.5934 14.9774 15.5248 15.046C14.4277 16.1431 12.6448 16.1431 11.5477 15.046C11.2391 14.7374 10.7248 14.7374 10.4162 15.046C9.3191 16.1431 7.53624 16.1431 6.4391 15.046C6.40481 15.0117 6.33624 14.9431 6.26767 14.9088C6.37052 12.3717 8.42767 10.3146 10.9991 10.3146Z" fill="#EA9010"/>
<path d="M5.82227 7.63922C5.95941 7.87922 6.23369 8.05065 6.50798 8.05065C6.64512 8.05065 6.78227 8.01636 6.91941 7.94779C7.29655 7.74208 7.43369 7.22779 7.19369 6.85065L6.64512 5.92493C6.43941 5.54779 5.92512 5.41065 5.54798 5.65065C5.17084 5.85636 5.03369 6.37065 5.27369 6.74779L5.82227 7.63922Z" fill="#EA9010"/>
<path d="M1.91389 10.6896L2.83961 11.2381C2.97675 11.3067 3.11389 11.341 3.25103 11.341C3.52532 11.341 3.79961 11.2039 3.93675 10.9296C4.14246 10.5524 4.03961 10.0724 3.66246 9.83242L2.70246 9.28385C2.32532 9.07814 1.84532 9.18099 1.60532 9.55814C1.39961 9.96957 1.53675 10.4496 1.91389 10.6896Z" fill="#EA9010"/>
<path d="M18.7817 11.3063C18.9188 11.3063 19.056 11.272 19.1931 11.2035L20.1188 10.6549C20.496 10.4492 20.6331 9.93489 20.3931 9.55775C20.1874 9.1806 19.6731 9.04346 19.296 9.28346L18.3702 9.83203C17.9931 10.0377 17.856 10.552 18.096 10.9292C18.2331 11.1692 18.5074 11.3063 18.7817 11.3063Z" fill="#EA9010"/>
<path d="M15.0792 7.91215C15.2164 7.98073 15.3535 8.01501 15.4907 8.01501C15.7649 8.01501 16.0392 7.87787 16.1764 7.60358L16.7249 6.67787C16.9307 6.30073 16.8278 5.82073 16.4507 5.58073C16.0735 5.37501 15.5935 5.47787 15.3535 5.85501L14.8049 6.78073C14.5649 7.22644 14.7021 7.70644 15.0792 7.91215Z" fill="#EA9010"/>
<path d="M9.66169 3.97112L10.2103 3.42254V6.02826C10.2103 6.47397 10.5531 6.81683 10.9988 6.81683C11.4445 6.81683 11.7874 6.47397 11.7874 6.02826V3.42254L12.336 3.97112C12.5074 4.14254 12.6788 4.21112 12.8845 4.21112C13.0903 4.21112 13.296 4.14254 13.4331 3.97112C13.7417 3.66254 13.7417 3.14826 13.4331 2.83969L11.5131 0.919687C11.4788 0.885402 11.4445 0.851116 11.376 0.81683C11.3417 0.81683 11.3417 0.782545 11.3074 0.782545C11.2731 0.782545 11.2731 0.748259 11.2388 0.748259C11.2045 0.748259 11.1703 0.748259 11.1703 0.713973C11.136 0.713973 11.136 0.713973 11.1017 0.679688C11.0674 0.679688 10.9988 0.679688 10.9645 0.679688C10.9303 0.679688 10.8617 0.679688 10.8274 0.679688C10.7931 0.679688 10.7931 0.679687 10.7588 0.713973C10.7245 0.713973 10.6903 0.713973 10.6903 0.748259C10.656 0.748259 10.656 0.782545 10.6217 0.782545C10.5874 0.782545 10.5874 0.81683 10.5531 0.81683C10.5188 0.851116 10.4845 0.885402 10.4503 0.919687L8.53026 2.83969C8.22169 3.14826 8.22169 3.66254 8.53026 3.97112C8.83883 4.27969 9.35311 4.27969 9.66169 3.97112Z" fill="#EA9010"/>
</svg>
